<?xml version="1.0" encoding="UTF-8" standalone="no"?>
<!-- Created with Inkscape (http://www.inkscape.org/) -->

<svg
   width="453"
   height="144"
   viewBox="0 0 453 144"
   version="1.1"
   id="svg1"
   xml:space="preserve"
   inkscape:version="1.3 (0e150ed6c4, 2023-07-21)"
   sodipodi:docname="logo.svg"
   xmlns:inkscape="http://www.inkscape.org/namespaces/inkscape"
   xmlns:sodipodi="http://sodipodi.sourceforge.net/DTD/sodipodi-0.dtd"
   xmlns="http://www.w3.org/2000/svg"
   xmlns:svg="http://www.w3.org/2000/svg"><sodipodi:namedview
     id="namedview1"
     pagecolor="#ffffff"
     bordercolor="#111111"
     borderopacity="1"
     inkscape:showpageshadow="0"
     inkscape:pageopacity="0"
     inkscape:pagecheckerboard="1"
     inkscape:deskcolor="#d1d1d1"
     inkscape:document-units="px"
     showgrid="true"
     inkscape:zoom="2.1875"
     inkscape:cx="206.4"
     inkscape:cy="91.885714"
     inkscape:window-width="1848"
     inkscape:window-height="1056"
     inkscape:window-x="60"
     inkscape:window-y="12"
     inkscape:window-maximized="1"
     inkscape:current-layer="layer1"><inkscape:grid
       id="grid1"
       units="px"
       originx="0"
       originy="0"
       spacingx="1"
       spacingy="1"
       empcolor="#0099e5"
       empopacity="0.30196078"
       color="#0099e5"
       opacity="0.14902"
       empspacing="5"
       dotted="false"
       gridanglex="30"
       gridanglez="30"
       visible="true" /></sodipodi:namedview><defs
     id="defs1" /><g
     inkscape:label="Layer 1"
     inkscape:groupmode="layer"
     id="layer1"><g
       fill="#f7a41d"
       id="g12"
       transform="translate(2,2)"><g
         id="g3"><polygon
           points="46,22 28,44 19,30 "
           id="polygon1" /><polygon
           points="0,22 46,22 33,33 28,44 22,44 22,95 31,95 20,100 12,117 0,117 "
           shape-rendering="crispEdges"
           id="polygon2" /><polygon
           points="31,95 12,117 4,106 "
           id="polygon3" /></g><g
         id="g8"><polygon
           points="56,22 62,36 37,44 "
           id="polygon4" /><polygon
           points="56,32 56,22 111,22 111,44 37,44 "
           shape-rendering="crispEdges"
           id="polygon5" /><polygon
           points="116,95 97,117 90,104 "
           id="polygon6" /><polygon
           points="42,95 116,95 100,104 97,117 42,117 "
           shape-rendering="crispEdges"
           id="polygon7" /><polygon
           points="52,117 3,140 101,22 150,0 "
           id="polygon8" /></g><g
         id="g11"><polygon
           points="141,22 140,40 122,45 "
           id="polygon9" /><polygon
           points="141,22 153,22 153,117 106,117 120,105 125,95 131,95 131,45 122,45 132,36 "
           shape-rendering="crispEdges"
           id="polygon10" /><polygon
           points="125,95 130,110 106,117 "
           id="polygon11" /></g></g><g
       id="g14"
       transform="translate(2,2)"
       style="fill:#f2f2f2;fill-opacity:1"><polygon
         points="260,37 229,40 177,40 177,22 260,22 "
         shape-rendering="crispEdges"
         id="polygon12"
         style="fill:#f2f2f2;fill-opacity:1" /><polygon
         points="229,37 260,37 207,99 207,103 176,103 229,40 "
         id="polygon13"
         style="fill:#f2f2f2;fill-opacity:1" /><polygon
         points="261,117 176,117 176,103 206,99 261,99 "
         shape-rendering="crispEdges"
         id="polygon14"
         style="fill:#f2f2f2;fill-opacity:1" /></g><g
       id="g1"
       style="fill:#f2f2f2;fill-opacity:1"><polygon
         points="177,22 260,22 260,37 229,40 177,40 "
         shape-rendering="crispEdges"
         id="polygon12-3"
         transform="matrix(-1,0,0,1,627,2)"
         style="fill:#f2f2f2;fill-opacity:1" /><polygon
         points="207,103 176,103 229,40 229,37 260,37 207,99 "
         id="polygon13-5"
         transform="matrix(-1,0,0,1,627,2)"
         style="fill:#f2f2f2;fill-opacity:1" /><polygon
         points="206,99 261,99 261,117 176,117 176,103 "
         shape-rendering="crispEdges"
         id="polygon14-6"
         transform="matrix(-1,0,0,1,627,2)"
         style="fill:#f2f2f2;fill-opacity:1" /></g><path
       id="rect14"
       style="shape-rendering:crispEdges;fill:#f2f2f2;fill-opacity:1"
       d="m 274,24 h 22 60 l -5e-5,18 H 296 v 21 h 44 v 14 h -44 l -0.0558,24 H 356 v 18 H 295.74163 274 Z"
       sodipodi:nodetypes="ccccccccccccccc" /></g><style
     id="style12">#text { fill: #121212 }&#10;.dark { #text }&#10;</style></svg>
